<svg width="1em" height="1em" viewBox="0 0 346.12 370.15" xmlns="http://www.w3.org/2000/svg">
  <g transform="translate(-72.824 -68.534)">
    <path fill="currentColor"
      d="m97.882 437.53c-20.824-1.8139-24.237-25.187-24.107-41.929 0.4396-17.278-3.5474-36.491 6.9873-51.66-6.4391-15.241-7.9577-33.222-6.8796-50.558-2.3874-14.889 2.8852-29.814 7.3495-42.338-10.656-17.769-8.5389-40.019-7.5498-59.926 1.7584-18.64 11.827-35.073 15.561-53.332 6.6243-18.675 8.7092-39.373 19.348-56.356 10.001-15.655 30.24-10.646 45.803-12.14 70.857-0.89577 141.81-1.652 212.61 1.7591 19.004 3.4631 22.404 25.571 27.416 40.993 6.9384 22.711 12.774 45.912 21.417 67.933 3.1516 21.775 3.553 44.728-2.6865 65.988-6.572 15.19 9.7164 33.512 4.8858 51.604 2.4072 16.329-5.7882 33.531-7.3638 47.354 10.833 15.24 4.8832 35.535 6.5132 53.016 1.1148 15.869-4.3215 38.25-23.935 38.105-95.034 2.7248-190.15 3.1886-285.22 2.0753-3.3825-0.14442-6.7887-0.1266-10.147-0.59009zm291.4-22.435c11.816-11.448 3.9643-32.209 5.7214-47.447-1.6903-20.751-29.038-9.6679-42.656-12.82-82.972-0.22892-165.99-1.022-248.93 1.0226-11.473 11.727-9.3688 31.143-7.9302 46.436 2.4077 22.29 30.15 10.728 45.366 13.931 81.526 0.513 163.08 1.0768 244.59-0.75513l3.8406-0.36696zm-263.42-25.98c-10.402-19.389 20.326-16.005 31.486-16.037 26.396 0.41969 53.148-0.57952 79.236 3.5144 9.1688 22.519-26.83 12.348-40.181 15.028-23.474-0.31134-47.311 0.92146-70.541-2.5059zm200.2 0.28657c-13.896-13.547 19.257-23.187 13.587-3.3185-1.9042 5.4418-9.3929 7.6606-13.587 3.3185zm28.708 0.74851c-15.575-13.003 17.345-24.723 13.461-4.5598-1.5214 5.4634-8.9534 7.0944-13.461 4.5598zm33.94-62.97c12.922-11.239 4.0753-33.62 7.2539-49.373-10.866-17.085-37.371-8.5423-54.899-11.384-76.478 0.43099-152.98-0.65165-229.44 0.91504-20.565-2.7694-17.2 22.187-16.425 35.445-0.71851 15.046 5.5593 29.782 23.037 24.865 88.796 1.2379 177.63 1.7692 266.42-0.0795l2.7738-0.18667zm-249.98-23.636c-18.632 2.3844-19.08-21.961-0.10796-17.979 32.588-0.64413 65.355-0.6284 97.781 2.8858 13.434 18.47-22.081 13.477-32.871 15.018-21.591 0.65299-43.215 0.991-64.803 0.0752zm187.7-2.7979c-13.359-18.745 27.396-16.692 11.631 1.0015-3.4434 2.5973-8.6701 2.1349-11.631-1.0015zm28.699 0.8137c-14.45-13.88 19.417-23.105 13.54-3.2914-2.2565 5.0206-9.2601 6.9924-13.54 3.2914zm36.935-65.193c6.2097-15.867 3.3467-35.7 1.5635-52.67-13.453-8.8614-32.715-2.8732-48.606-4.9111-79.673-0.43986-159.37-0.99378-239.03 0.77598-16.38 5.6507-11.124 30.84-10.209 45.096 0.80682 22.591 26.892 13.454 41.553 15.64 83.677 0.19771 167.42 0.32477 251.03-3.3278zm-265.09-22.9c-7.9734-21.544 24.424-13.045 37.041-14.933 23.96 0.0878 48.002-0.58268 71.898 1.2044 16.544 19.409-19.368 16.707-31.399 17.103-25.22 0.20835-50.663 1.0621-75.683-2.5404l-1.857-0.83422zm199.9-0.11795c-12.525-18.052 25.708-17.53 12.921 0.11795-3.0708 4.376-9.8973 4.2143-12.921-0.11795zm28.667 1.1756c-15.081-20.169 27.689-16.888 10.93 0.73727-3.3029 1.9784-7.8546 1.4185-10.93-0.73727z" />
  </g>
</svg>