<svg width="1em" height="1em" viewBox="0 0 267.74 217.75" xmlns="http://www.w3.org/2000/svg">
  <g transform="translate(-14.571 -30.545)">
    <path fill="currentColor"
      d="m36.184 245.71c-1.9691-34.937-0.80566-70.025-1.2-105.02-0.81034-18.532 1.5521-37.699-3.5289-55.753-4.0816-12.004-18.696-21.821-16.698-34.904 22.107-13.374 48.505-19.105 74.208-19.48 20.649-0.22547 41.595 4.7369 59.074 15.816 10.99-5.6216 22.256-11.438 34.693-13.35 33.651-6.0532 69.688-0.1832 99.434 16.696 1.7105 13.036-12.114 24.733-18.14 36.163-14.696 20.824-37.321 39.532-64.191 38.48-16.328 0.49862-30.922-7.7228-46.496-10.869-17.508-1.3752-33.11 9.1176-50.409 10.253-19.97 3.3852-40.236-4.9146-53.901-19.457-8.4116-7.4208-2.9965 13.775-4.8066 19.098-0.53537 41.079 0.21774 82.176-0.83078 123.24-1.3527 2.925-6.1358 1.6228-7.2087-0.91307zm70.929-153.5c8.9264-0.92874 33.473-11.625 17.068-20.448-16.82-11.07-40.485-7.1363-55.219 5.6159 1.579 11.289 18.023 13.182 27.642 15.088 3.4925 0.34623 7.0452 0.37645 10.508-0.2559zm99.254-0.50882c11.45-0.04575 30.012-14.889 11.935-21.816-15.583-7.3566-36.419-7.2162-49.199 5.4713-3.6858 12.588 18.449 17.144 28.41 17.682 2.9911-0.09106 5.9607-0.58222 8.853-1.3369z" />
  </g>
</svg>