<svg width="1em" height="1em" viewBox="0 0 423.69 423.56" xmlns="http://www.w3.org/2000/svg">
  <g transform="translate(-31.689 -37.241)">
    <path
      d="m134.26 460.25c-34.654-2.4187-74.581-13.54-90.066-48.02-16.616-35.005-9.9314-74.682-12.109-112.06 0.068182-58.604-1.7138-117.34 1.7896-175.85 2.91-34.648 23.527-69.732 58.534-79.656 33.454-10.779 69.143-5.6034 103.67-7.2915 58.021 0.16564 116.13-1.0479 174.09 1.6628 34.455 2.9901 68.14 24.882 77.958 59.222 10.57 33.243 5.477 68.652 7.1425 102.94-0.0151 57.224 0.73026 114.49-1.361 171.68-2.4407 35.635-24.786 70.87-60.441 80.716-30.508 9.5234-63.022 4.6353-94.467 6.5158-54.907 0.35397-109.84 1.2867-164.74 0.1391zm25.533-118.89c16.928-17.229 0.73184-43.082-22.538-35.941-23.639-6.5443-26.108 38.877-3.7662 37.271 8.7322 0.31859 17.785 0.94653 26.305-1.3298zm208.05-2.2488c10.695-17.866-0.34459-38.918-22.17-32.735-47.574-1.3228-95.419-2.5068-142.84 1.9976-17.128 14.345-0.70594 43.647 22.245 34.549 46.805 0.3639 93.761 0.75231 140.43-3.1278zm-207.95-74.801c15.1-14.787 2.6496-43.597-19.885-35.749-31.392-5.5011-27.381 39.16 0.90097 38.762 6.4406 1.0386 13.2 9e-3 18.984-3.0122zm205.88-0.0989c14.814-17.573 0.4531-44.047-23.358-35.654-46.625-0.32101-93.389-0.67236-139.89 3.0639-16.588 14.273-0.76195 43.513 22.014 34.126 47.054 0.12872 94.248 0.94972 141.23-1.5356zm-207.01-75.086c24.4-14.358-4.1743-44.443-25.336-36.063-24.769-0.93727-18.319 48.04 7.6425 37.856 5.9003-0.28273 11.977-0.14232 17.694-1.7921zm204.2 0.71153c15.885-9.1381 10.38-44.069-13.379-36.577-46.755-0.3541-93.61-1.417-140.32 0.70245-20.951-1.0726-16.92 41.818 3.9834 36.581 49.896 0.35957 99.839 0.69455 149.71-0.70663z"
      fill="#623ab2" />
  </g>
</svg>