<svg width="1em" height="1em" viewBox="0 0 254.24 254.24" xmlns="http://www.w3.org/2000/svg">
  <g transform="translate(-49.086 -14.262)">
    <path
      d="m69.694 267c-12.1-3.7425-20.968-15.981-19.729-28.77-1.5332-64.423-0.98654-128.91 1.066-193.32-1.2219-10.81 3.6528-21.422 13.377-26.656 10.784-5.2462 23.449-2.6241 35.1-3.6563 60.703-0.49878 121.47-0.81843 182.12 1.9164 15.075 1.2766 22.371 17.752 20.458 31.365 1.6413 64.135 1.7721 128.35-0.36587 192.47 1.6328 13.374-9.9432 27.463-23.795 26.273-65.569 2.1083-131.21 2.3533-196.8 1.1759-3.8085-0.20024-7.665-0.1412-11.432-0.79968zm92.523-25.918c2.1119-30.801 1.0909-61.801 1.5402-92.693 0.0303-6.4882 0.0605-12.976 0.0908-19.465 36.545-0.36187 73.114 0.17459 109.64-1.1475 7.4104-4.3602 3.9982-22.103 1.6913-29.464-33.794-2.153-67.738 0.31461-101.54-1.3138-16.784-1.4816-8.6612-21.791-10.296-32.828-0.95059-9.4832 4.6276-28.185-11.517-23.8-9.1479-0.20231-23.15-1.9402-19.331 11.81-1.0448 13.848 1.5939 28.104-1.3954 41.67-9.7422 7.448-24.07 1.9673-35.722 3.5839-9.0362 0.08679-24.345-2.8944-20.085 11.508-0.20231 9.1479-1.9402 23.15 11.81 19.331 12.596 0.69178 25.247-0.67918 37.803 0.23436 12.067 5.8408 6.0266 22.949 7.57 33.894-0.049 25.519-0.53219 51.064 0.51144 76.566 3.9411 7.0142 21.471 2.5319 29.227 2.1128z"
      fill="#0f9c57" />
  </g>
</svg>
