<svg width="1em" height="1em" viewBox="0 0 30.251 28.156" xmlns="http://www.w3.org/2000/svg">
  <g transform="translate(-4.803 -7.0552)">
    <path fill="currentColor"
      d="m19.498 34.897c-2.6259-0.98835-3.9544-4.5066-2.3552-6.8934 1.4621-2.5434 5.4024-2.9325 7.3553-0.75563 1.7369 1.7332 1.7334 4.8009-0.05647 6.504-1.2354 1.3219-3.2552 1.8531-4.9436 1.145zm3.0545-2.9868c1.4353-1.0807 0.48153-3.0362-0.94651-3.5599-1.4-0.4707-3.2633 1.4336-2.5173 2.8087 0.67878 1.3442 2.3449 2.1336 3.4638 0.75127zm4.3219-3.6095c-0.96262-1.6737 1.5491-1.9896 2.5685-2.5153 1.5855-0.54421 3.1551-1.4475 4.8709-1.3598 1.7615 0.70583-0.03477 2.342-1.1107 2.6883-1.7962 0.86646-3.7618 1.7145-5.7936 1.5632-0.21476-0.04645-0.45566-0.15201-0.53502-0.37643zm-2.4165-3.0379c-1.3427-0.53311-2.6931-1.1327-3.3459-2.5286-0.5601-1.0215-2.3333-3.1487-0.18125-3.4195 3.6209-1.4193 7.2364-2.8643 10.908-4.1445 1.0428 2.1196 1.7579 4.4023 2.4244 6.6666-0.30594 1.0553-2.237 1.1051-3.1883 1.719-1.883 0.72069-3.7456 1.5175-5.6794 2.0901-0.33684-0.05129-0.64226-0.22406-0.93796-0.38312zm-7.1722-0.96715c-1.6476-4.1341-3.0376-8.3838-5.0008-12.383-0.52453-1.7401-2.3645-1.6712-3.6168-0.78562-1.12 0.29807-3.121 1.6147-3.8426 0.14441-0.2769-1.7764 2.0825-2.037 3.2415-2.6819 1.3565-0.44448 2.6436-1.2176 4.0746-1.3626 1.3798 0.29646 1.7115 1.9774 2.2973 3.0594 1.6718 4.1342 3.3792 8.2586 4.8933 12.454 1.0004 1.2935-0.61782 2.6885-1.8111 2.0331l-0.11902-0.20264zm0.60967-9.4045c-0.23598-1.1747-1.53-2.6886-0.75808-3.7533 3.5064-1.5963 7.1404-2.9225 10.813-4.0821 1.2849-0.012131 1.3109 2.266 1.9817 3.2331 0.44498 1.1204 0.8892 2.2412 1.3339 3.3618-3.9357 1.5551-7.8371 3.2034-11.816 4.645-0.68374-1.044-1.0705-2.259-1.5553-3.4045z" />
  </g>
</svg>