<svg width="1em" height="1em" viewBox="0 0 416.2 388.98" xmlns="http://www.w3.org/2000/svg">
  <g transform="translate(-30.023 -49.088)">
    <path fill="currentColor"
      d="m97.754 436.96c-25.33-4.6881-23.864-32.739-23.136-52.496-0.56774-46.482 0.34938-92.994-0.97551-139.46-8.6284 16.298-48.278 30.291-43.167 0.38352 9.3979-16.426 25.926-27.991 38.611-42.058 49.731-48.931 100.49-96.817 150.98-144.95 15.193-19.473 37.65-4.55 49.378 10.282 24.069 22.431 46.315 47.125 71.55 68.11 2.6961-16.982-8.8032-43.735 6.7796-54.441 15.633-5.4457 29.911 0.69757 25.859 18.796 0.90244 21.529 1.5758 43.36-0.27665 64.719 11.732 18.37 30.191 31.546 44.855 47.558 10.803 13.24 38.714 28.374 23.647 47.605-14.819 18.234-32.991-19.709-38.816-12.289-1.0419 53.978 1.849 108.12-2.3629 161.98 0.70151 26.457-28.523 28.331-48.208 26.658-84.896 0.56332-169.84 1.4316-254.72-0.39919zm92.544-97.706c-0.12338-22.25-0.24677-44.5-0.37015-66.75 31.749-0.0547 63.508-0.7616 95.25-8e-3 5.1806 19.787 0.66373 43.329 2.4931 64.462 0.23257 22.954 0.6957 45.905 1.0784 68.857 26.726-0.34035 53.452-0.68071 80.178-1.0211 3e-3 -64.671 7e-3 -129.34 0.01-194.01-42.814-41.74-85.403-83.844-129.36-124.3-15.927 8.436-27.397 24.914-41.559 36.502-24.267 24.032-49.313 47.834-73.497 71.378-18.056 11.724-17.99 30.826-16.891 50.828-0.23524 53.604-0.19596 107.21-0.29521 160.81h83.33c-0.12338-22.25-0.24676-44.5-0.37014-66.75zm34.461-129.73c-21.252-9.0383-18.114-42.204 2.5929-49.922 18.278-9.8384 46.016 8.121 39.006 29.206-4.4379 19.027-23.387 28.586-41.599 20.717z" />
  </g>
</svg>