<svg width="1em" height="1em" viewBox="0 0 444.27 494.13" xmlns="http://www.w3.org/2000/svg">
  <g transform="translate(-35.234 -.90606)">
    <path fill="currentColor"
      d="m236.33 494.93c-22.465-18.282-39.961-44.293-67.598-55.963-20.1-5.1402-37.756 18.357-59.595 9.1369-44.235-10.687-79.581-57.431-73.148-103.29 4.9824-27.996 31.926-43.103 47.099-65.179 23.983-26.454 30.974-62.75 30.412-97.399 1.6216-32.366 3.2547-70.697 30.168-93.117 29.444-19.316 65.589-2.5382 93.384 11.707 62.406 35.136 114.38 89.152 147.46 152.62 12.317 25.933 25.689 62.157 2.9742 86.454-29.002 30.333-74.341 24.282-112.41 27.432-12.247 1.0657-46.793 4.1085-44.247 14.912 27.963 10.714 6.2951 46.435 37.521 53.457 19.71 8.4315 42.817 33.808 9.6033 42.916-13.459 5.4014-26.532 17.667-41.627 16.32zm-24.957-136.84c32.432-18.953 70.788-17.331 107.02-18.594-76.58-35.069-139.99-97.944-176.71-173.58-3.9423 18.455-1.0998 39.554-4.966 58.818 1.089 25.595-26.386 45.739-15.929 71.18 14.112 32.672 44.728 61.799 81.08 66 3.4035-0.61849 6.475-2.2442 9.5-3.8263zm152.04-38.621c19.99-14.547 4.2299-42.753-4.0276-60.285-32.928-58.419-82.94-107.28-141.12-140.38-17.097-8.182-46.446-23.192-59.156-1.6747-5.5533 26.493 11.732 51.139 24.707 72.813 35.815 50.912 82.366 96.184 138.53 123.94 12.66 5.2514 27.518 11.102 41.066 5.5823zm-86.945-60.161c-23.233-20.113-46.564-41.087-64.288-66.31 28.863-21.98 75.247-1.3916 81.461 33.785 2.7822 9.5979 0.32165 53.162-17.173 32.526zm126.14-40.606c-10.836-25.186 34.848-20.736 49.47-30.791 16.884-13.654 34.649 5.9922 24.398 22.057-22.454 6.0894-46.041 7.2757-69.041 10.664l-3.3961-0.35067zm-58.612-84.323c-8.107-18.55 22.856-34.472 31.426-50.894 11.239-29.8 48.553 7.0967 19.179 18.834-15.897 8.5493-32.358 38.726-50.605 32.059zm-81.503-54.721c-12.794-16.068 2.7742-44.009 2.3807-64.53-0.31225-28.538 45.785-8.8793 24.9 13.049-9.1976 13.873-6.9716 52.913-27.28 51.481z" />
  </g>
</svg>