<svg width="1em" height="1em" viewBox="0 0 503.74 500.8" xmlns="http://www.w3.org/2000/svg">
  <g transform="translate(-.32572 -.90171)">
    <path fill="currentColor"
      d="m261.67 457.1c7.0155-23.312 7.392-50.569 29.353-65.716 48.017-48.141 95.511-97.023 146.26-142.27 25.456-5.5503 47.774 16.517 60.288 36.297 17.533 22.309-4.3245 42.445-20.117 57.276-44.724 45.776-88.621 92.579-135.88 135.73-30.415 7.7894-60.844 15.523-91.267 23.281l11.357-44.601zm50.302-3.0986c25.633-6.8724 41.029-31.169 60.274-47.798 34.12-34.03 68.165-68.135 102.25-102.2-8.8322-8.8322-17.664-17.664-26.497-26.497-46.601 47.594-95.615 92.949-139.66 142.95-9.4557 10.74-29.922 51.242 3.6337 33.546zm-310.81 16.247c3.329-45.409 33.066-87.475 73.617-106.99-23.595-23.386-33.82-60.814-19.081-91.67 15.197-37.169 60.243-56.159 97.895-43.225 12.927-9.9293 21.388-35.21 38.616-46.111 7.4124-15.656 52.204-20.524 30.683-37.099-35.209-36.4-26.153-101.5 15.546-129.04 39.329-28.606 100.91-15.447 124.24 27.533 21.515 34.356 14.613 82.926-16.778 109.02 9.5186 13.43 35.736 22.859 47.476 40.028-2.5564 18.327-24.959 29.503-34.878 8.0402-48.686-41.953-132.12-29.057-165.27 26.203-21.946 20.705 10.802 34.713 11.741 56.758 6.6284 28.427-3.9527 58.444-23.34 79.408 4.4796 8.6401 34.669 14.155 22.5 24.256-12.033 21.304-27.932 10.55-44.752 1.3987-55.426-20.293-124.5 21.848-127.07 81.987 5.1285 13.784-38.47 14.059-31.143-0.5zm145.07-121.14c36.059-12.201 40.169-67.839 7.5284-86.37-27.882-18.584-69.205 0.74039-73.556 33.711-6.6159 31.2 23.649 60.506 54.554 55.444 3.9208-0.438 7.7951-1.3492 11.473-2.7841zm156.13-206.69c40.093-8.7752 56.033-65.384 25.867-93.455-25.933-27.675-78.335-19.997-91.891 16.661-17.938 36.928 16.806 84.024 57.3 78.357l4.3352-0.60557z" />
  </g>
</svg>