<svg width="1em" height="1em" viewBox="0 0 447.89 447.94" xmlns="http://www.w3.org/2000/svg">
  <g transform="translate(-13.065 -5.5543)">
    <path fill="currentColor"
      d="m69.8 452.49c-32.853-3.1731-59.602-35.255-55.573-68.249-1.2777-102.28-2.0685-204.64 0.74302-306.89 6.1497-30.558 37.019-53.931 68.265-50.097 65.572-0.59407 131.15-0.508 196.72-0.76049v43.06c-68.14 0.34181-136.31-0.84696-204.43 0.8662-26.969 1.4349-17.172 34.845-19.414 52.887 0.21461 89.023-1.1076 178.08 0.83267 267.08 0.08314 26.95 33.931 18.175 51.563 20.015 89.541-0.21743 179.12 1.1839 268.64-0.89481 27.967-0.90911 17.262-37.113 19.751-55.293 0.10767-55.887 0.0348-111.78 0.0562-167.66h43.06c-0.49802 71.462 0.37931 142.95-1.3967 214.39-5.3143 29.833-34.859 54.574-65.647 51.083-101.04 1.2431-202.14 2.3347-303.17 0.46469zm306.16-340.42c-1.4812-6.5366 3.0928-19.128-2.5333-21.52h-40.507c0.17993-14.167 0.35985-28.333 0.53978-42.5 14.167-0.17993 28.333-0.35985 42.5-0.53978v-41.96h43v42h42v43h-41.96c-0.17993 14.167-0.35985 28.333-0.53978 42.5-14.167 0.17993-28.333 0.35985-42.5 0.53978v-21.52z" />
  </g>
</svg>